<svg width="25" height="25" viewBox="0 0 25 25" fill="none" xmlns="http://www.w3.org/2000/svg">
<rect width="25" height="25" rx="12.5" fill="#1D1D1D"/>
<path d="M5.96262 13.4835L16.7151 13.4835L12.0175 18.3072C11.6421 18.6928 11.6421 19.3254 12.0175 19.7109C12.3929 20.0964 12.9994 20.0964 13.3748 19.7109L19.7184 13.1969C20.0939 12.8114 20.0939 12.1886 19.7184 11.8031L13.3748 5.28913C12.9994 4.90362 12.3929 4.90362 12.0175 5.28913C11.6421 5.67463 11.6421 6.29737 12.0175 6.68287L16.7151 11.5066L5.96262 11.5066C5.43318 11.5066 5 11.9514 5 12.4951C5 13.0387 5.43318 13.4835 5.96262 13.4835Z" fill="#F1C146"/>
</svg>
