<svg width="21" height="18" viewBox="0 0 21 18" fill="none" xmlns="http://www.w3.org/2000/svg">
<path d="M9.58583 14.4666C9.68651 14.5669 9.7664 14.6862 9.82091 14.8174C9.87542 14.9487 9.90348 15.0895 9.90348 15.2316C9.90348 15.3737 9.87542 15.5145 9.82091 15.6458C9.7664 15.777 9.68651 15.8963 9.58583 15.9966L9.12503 16.4574C8.63588 16.9483 8.05425 17.3375 7.41378 17.6022C6.77331 17.867 6.0867 18.0022 5.39366 18C4.34997 18.0003 3.32963 17.6911 2.46172 17.1114C1.59382 16.5317 0.91735 15.7076 0.517901 14.7434C0.118452 13.7792 0.0139718 12.7181 0.217678 11.6945C0.421384 10.6709 0.924124 9.73068 1.66229 8.99285L4.78977 5.86537C5.45498 5.20026 6.28588 4.72503 7.19645 4.48888C8.10701 4.25274 9.06415 4.26427 9.96876 4.52227C10.8734 4.78027 11.6926 5.27537 12.3416 5.95632C12.9906 6.63726 13.4458 7.4793 13.6601 8.39525C13.6956 8.53452 13.7029 8.67947 13.6817 8.82161C13.6604 8.96375 13.611 9.10022 13.5364 9.22302C13.4617 9.34582 13.3633 9.45248 13.2469 9.53676C13.1304 9.62104 12.9984 9.68123 12.8584 9.71381C12.7184 9.74639 12.5734 9.75071 12.4317 9.72651C12.29 9.70231 12.1546 9.65008 12.0334 9.57287C11.9122 9.49567 11.8076 9.39505 11.7257 9.27691C11.6439 9.15876 11.5865 9.02547 11.5568 8.88485C11.4297 8.34416 11.1604 7.84725 10.7769 7.44547C10.3933 7.0437 9.90947 6.75166 9.37528 6.59953C8.84108 6.4474 8.27594 6.4407 7.73829 6.58014C7.20064 6.71958 6.70999 7.00008 6.31705 7.39266L3.18958 10.5201C2.75363 10.9557 2.45665 11.5108 2.33619 12.1152C2.21574 12.7196 2.27721 13.3461 2.51285 13.9156C2.74849 14.485 3.14771 14.9718 3.66001 15.3143C4.17231 15.6569 4.77469 15.8398 5.39096 15.84C5.80044 15.8412 6.20609 15.7612 6.58443 15.6045C6.96276 15.4479 7.30626 15.2177 7.59504 14.9274L8.05494 14.4666C8.15529 14.3658 8.27457 14.2858 8.40593 14.2312C8.53729 14.1766 8.67813 14.1485 8.82038 14.1485C8.96263 14.1485 9.10348 14.1766 9.23484 14.2312C9.3662 14.2858 9.48548 14.3658 9.58583 14.4666ZM19.4542 1.54541C18.4644 0.555883 17.1221 0 15.7224 0C14.3228 0 12.9805 0.555883 11.9906 1.54541L11.5307 2.00531C11.3278 2.2082 11.2138 2.48337 11.2138 2.7703C11.2138 3.05723 11.3278 3.3324 11.5307 3.53529C11.7336 3.73818 12.0088 3.85216 12.2957 3.85216C12.5826 3.85216 12.8578 3.73818 13.0607 3.53529L13.5215 3.0745C14.1063 2.4897 14.8994 2.16116 15.7265 2.16116C16.5535 2.16116 17.3467 2.4897 17.9315 3.0745C18.5163 3.6593 18.8448 4.45245 18.8448 5.27948C18.8448 6.10651 18.5163 6.89966 17.9315 7.48446L14.7986 10.6074C14.5098 10.8977 14.1663 11.1279 13.788 11.2845C13.4096 11.4412 13.004 11.5212 12.5945 11.52C11.8921 11.5195 11.2104 11.2817 10.66 10.8452C10.1096 10.4087 9.72288 9.79912 9.56243 9.11525C9.4975 8.83622 9.32439 8.5944 9.08118 8.44301C8.83796 8.29161 8.54457 8.24303 8.26554 8.30795C7.98651 8.37288 7.74469 8.54599 7.5933 8.7892C7.4419 9.03242 7.39332 9.32581 7.45824 9.60484C7.72924 10.763 8.38353 11.7957 9.31501 12.5354C10.2465 13.2751 11.4005 13.6784 12.59 13.68H12.5945C13.2879 13.6819 13.9747 13.5463 14.6154 13.2811C15.256 13.0158 15.8377 12.6262 16.3268 12.1347L19.4542 9.00725C19.9443 8.51733 20.333 7.93569 20.5982 7.29553C20.8634 6.65538 20.9999 5.96925 20.9999 5.27633C20.9999 4.58341 20.8634 3.89728 20.5982 3.25713C20.333 2.61697 19.9443 2.03532 19.4542 1.54541Z" fill="#1D1D1D"/>
</svg>
